<svg width="39" height="39" viewBox="0 0 39 39" fill="none" xmlns="http://www.w3.org/2000/svg">
<path d="M29.25 25.5938H31.6875V31.6875H29.25V25.5938ZM24.375 19.5H26.8125V31.6875H24.375V19.5ZM13.4062 31.6875C11.7907 31.6856 10.2418 31.0429 9.09946 29.9005C7.95707 28.7582 7.31444 27.2093 7.3125 25.5938H9.75C9.75 26.3169 9.96444 27.0238 10.3662 27.6251C10.7679 28.2263 11.339 28.695 12.0071 28.9717C12.6752 29.2484 13.4103 29.3208 14.1195 29.1797C14.8288 29.0387 15.4803 28.6904 15.9916 28.1791C16.5029 27.6678 16.8512 27.0163 16.9922 26.3071C17.1333 25.5978 17.0609 24.8627 16.7842 24.1946C16.5075 23.5265 16.0388 22.9554 15.4376 22.5537C14.8363 22.1519 14.1294 21.9375 13.4062 21.9375V19.5C15.0224 19.5 16.5724 20.142 17.7152 21.2848C18.858 22.4276 19.5 23.9776 19.5 25.5938C19.5 27.2099 18.858 28.7599 17.7152 29.9027C16.5724 31.0455 15.0224 31.6875 13.4062 31.6875Z" fill="#A62D38"/>
<path d="M34.125 2.4375H4.875C4.22873 2.43815 3.60912 2.69516 3.15214 3.15214C2.69516 3.60912 2.43815 4.22873 2.4375 4.875V34.125C2.43815 34.7713 2.69516 35.3909 3.15214 35.8479C3.60912 36.3048 4.22873 36.5619 4.875 36.5625H34.125C34.7712 36.5615 35.3906 36.3044 35.8475 35.8475C36.3044 35.3906 36.5615 34.7712 36.5625 34.125V4.875C36.5619 4.22873 36.3048 3.60912 35.8479 3.15214C35.3909 2.69516 34.7713 2.43815 34.125 2.4375ZM34.125 13.4062H17.0625V4.875H34.125V13.4062ZM14.625 4.875V13.4062H4.875V4.875H14.625ZM4.875 34.125V15.8438H34.125L34.1274 34.125H4.875Z" fill="#A62D38"/>
</svg>
