<svg width="39" height="39" viewBox="0 0 39 39" fill="none" xmlns="http://www.w3.org/2000/svg">
<path d="M19.5 37.6071C15.4196 33.1148 9.88595 30.2049 3.87216 29.3893C3.18766 29.3135 2.55547 28.9869 2.09762 28.4725C1.63976 27.958 1.3887 27.2922 1.39287 26.6036V4.17857C1.39285 3.7762 1.47999 3.3786 1.6483 3.01312C1.81661 2.64765 2.0621 2.32297 2.36787 2.06143C2.66826 1.80464 3.01985 1.61471 3.39928 1.50424C3.77871 1.39377 4.17731 1.3653 4.56859 1.42071C10.3191 2.37512 15.5797 5.24098 19.5 9.555M19.5 37.6071V9.555M19.5 37.6071C23.5804 33.1148 29.1141 30.2049 35.1279 29.3893C35.8124 29.3135 36.4446 28.9869 36.9024 28.4725C37.3603 27.958 37.6113 27.2922 37.6072 26.6036V4.17857C37.6072 3.7762 37.52 3.3786 37.3517 3.01312C37.1834 2.64765 36.9379 2.32297 36.6322 2.06143C36.3318 1.80464 35.9802 1.61471 35.6008 1.50424C35.2213 1.39377 34.8227 1.3653 34.4314 1.42071C28.6809 2.37512 23.4203 5.24098 19.5 9.555" stroke="#A62D38" stroke-width="3" stroke-linecap="round" stroke-linejoin="round"/>
</svg>
