<svg width="39" height="39" viewBox="0 0 39 39" fill="none" xmlns="http://www.w3.org/2000/svg">
<path d="M30.25 26.5938H30.6875V30.6875H30.25V26.5938ZM25.375 20.5H25.8125V30.6875H25.375V20.5ZM13.4067 30.6875C12.0562 30.6857 10.7615 30.1484 9.80656 29.1934C9.09095 28.4778 8.60988 27.5714 8.41292 26.5938H8.85865C8.98259 27.1574 9.21086 27.6959 9.53472 28.1806C10.0464 28.9463 10.7736 29.5431 11.6244 29.8956C12.4752 30.248 13.4114 30.3402 14.3146 30.1605C15.2179 29.9809 16.0475 29.5374 16.6987 28.8862C17.3499 28.235 17.7934 27.4054 17.973 26.5021C18.1527 25.5989 18.0605 24.6627 17.7081 23.8119C17.3556 22.9611 16.7588 22.2339 15.9931 21.7222C15.5084 21.3984 14.9699 21.1701 14.4062 21.0461V20.5991C15.3847 20.795 16.292 21.2759 17.0081 21.9919C17.9633 22.9472 18.5 24.2428 18.5 25.5938C18.5 26.9447 17.9633 28.2403 17.0081 29.1956C16.0529 30.1507 14.7575 30.6874 13.4067 30.6875Z" fill="#A62D38" stroke="white" stroke-width="2"/>
<path d="M34.125 2.4375H4.875C4.22873 2.43815 3.60912 2.69516 3.15214 3.15214C2.69516 3.60912 2.43815 4.22873 2.4375 4.875V34.125C2.43815 34.7713 2.69516 35.3909 3.15214 35.8479C3.60912 36.3048 4.22873 36.5619 4.875 36.5625H34.125C34.7712 36.5615 35.3906 36.3044 35.8475 35.8475C36.3044 35.3906 36.5615 34.7712 36.5625 34.125V4.875C36.5619 4.22873 36.3048 3.60912 35.8479 3.15214C35.3909 2.69516 34.7713 2.43815 34.125 2.4375ZM34.125 13.4062H17.0625V4.875H34.125V13.4062ZM14.625 4.875V13.4062H4.875V4.875H14.625ZM4.875 34.125V15.8438H34.125L34.1274 34.125H4.875Z" fill="white"/>
</svg>
