<svg width="48" height="44" viewBox="0 0 48 44" fill="none" xmlns="http://www.w3.org/2000/svg">
<path fill-rule="evenodd" clip-rule="evenodd" d="M32 16.5C32 18.4449 31.1571 20.3102 29.6569 21.6854C28.1566 23.0607 26.1217 23.8333 24 23.8333C21.8783 23.8333 19.8434 23.0607 18.3431 21.6854C16.8429 20.3102 16 18.4449 16 16.5C16 14.5551 16.8429 12.6898 18.3431 11.3145C19.8434 9.93927 21.8783 9.16666 24 9.16666C26.1217 9.16666 28.1566 9.93927 29.6569 11.3145C31.1571 12.6898 32 14.5551 32 16.5ZM28 16.5C28 17.4725 27.5786 18.4051 26.8284 19.0927C26.0783 19.7803 25.0609 20.1667 24 20.1667C22.9391 20.1667 21.9217 19.7803 21.1716 19.0927C20.4214 18.4051 20 17.4725 20 16.5C20 15.5275 20.4214 14.5949 21.1716 13.9073C21.9217 13.2196 22.9391 12.8333 24 12.8333C25.0609 12.8333 26.0783 13.2196 26.8284 13.9073C27.5786 14.5949 28 15.5275 28 16.5Z" fill="white"/>
<path fill-rule="evenodd" clip-rule="evenodd" d="M24 1.83333C11.85 1.83333 2 10.8625 2 22C2 33.1375 11.85 42.1667 24 42.1667C36.15 42.1667 46 33.1375 46 22C46 10.8625 36.15 1.83333 24 1.83333ZM6 22C6 25.8317 7.426 29.359 9.816 32.1603C11.4945 30.1398 13.6598 28.5024 16.1429 27.3759C18.6259 26.2494 21.3595 25.6645 24.13 25.6667C26.8647 25.6643 29.5638 26.2341 32.0219 27.3328C34.4799 28.4314 36.6319 30.0299 38.314 32.0063C40.0469 29.9229 41.2137 27.4912 41.7178 24.9124C42.2219 22.3336 42.0489 19.6818 41.213 17.1765C40.3771 14.6711 38.9024 12.3842 36.911 10.5051C34.9195 8.62588 32.4685 7.2084 29.7608 6.36993C27.053 5.53145 24.1664 5.29608 21.3397 5.68328C18.513 6.07048 15.8276 7.06913 13.5055 8.59659C11.1835 10.1241 9.29162 12.1364 7.98646 14.4672C6.68129 16.798 6.00036 19.3801 6 22ZM24 38.5C19.8679 38.5057 15.8605 37.2026 12.656 34.8113C13.9459 33.1187 15.6627 31.7367 17.6604 30.7829C19.6581 29.8292 21.8776 29.3319 24.13 29.3333C26.3543 29.3317 28.547 29.8165 30.5259 30.7476C32.5047 31.6787 34.2127 33.0291 35.508 34.6867C32.2786 37.1556 28.2052 38.5054 24 38.5Z" fill="white"/>
</svg>
