<svg width="39" height="39" viewBox="0 0 39 39" fill="none" xmlns="http://www.w3.org/2000/svg">
<path d="M4.25 29.875V27.6329C4.25012 27.6292 4.25042 27.6216 4.25108 27.6102C4.25266 27.5832 4.25629 27.5354 4.26449 27.4697C4.28094 27.3382 4.31551 27.137 4.38773 26.8894C4.53181 26.3954 4.8248 25.7188 5.42445 25.0335C6.60078 23.6891 9.12893 22.125 14.625 22.125C20.1211 22.125 22.6492 23.6891 23.8255 25.0335C24.4252 25.7188 24.7182 26.3954 24.8623 26.8894C24.9345 27.137 24.9691 27.3382 24.9855 27.4697C24.9937 27.5354 24.9973 27.5832 24.9989 27.6102C24.9996 27.6216 24.9999 27.6292 25 27.6329V29.875H4.25ZM34.75 29.875H30.25V27.625V27.6055L30.2492 27.586C30.1943 26.1778 29.8315 24.7987 29.1863 23.5458C28.9933 23.1711 28.7764 22.8104 28.5374 22.4657C31.4332 23.058 32.9405 24.2209 33.736 25.2224C34.2538 25.8743 34.5071 26.5029 34.6316 26.9578C34.6939 27.1856 34.7236 27.369 34.7377 27.4879C34.7447 27.5473 34.7478 27.5901 34.7491 27.614C34.7496 27.6233 34.7499 27.6297 34.75 27.6329V29.875ZM24.3694 7.49998V7.49999H24.375C25.6182 7.49999 26.8105 7.99385 27.6896 8.87293C28.5686 9.75201 29.0625 10.9443 29.0625 12.1875C29.0625 13.4307 28.5686 14.623 27.6896 15.5021C26.8105 16.3811 25.6182 16.875 24.375 16.875L24.3694 16.875C23.7769 16.8783 23.1927 16.7648 22.6493 16.5443C23.3731 15.2123 23.7566 13.7153 23.7566 12.1875C23.7566 10.6597 23.3731 9.16266 22.6493 7.83065C23.1927 7.61019 23.7769 7.49668 24.3694 7.49998ZM18.5225 9.58326C19.0376 10.3541 19.3125 11.2604 19.3125 12.1875C19.3125 13.4307 18.8186 14.623 17.9396 15.5021C17.0605 16.3811 15.8682 16.875 14.625 16.875C13.6979 16.875 12.7916 16.6001 12.0208 16.085C11.2499 15.5699 10.6491 14.8378 10.2943 13.9813C9.93953 13.1248 9.8467 12.1823 10.0276 11.273C10.2084 10.3637 10.6549 9.52849 11.3104 8.87293C11.966 8.21737 12.8012 7.77093 13.7105 7.59006C14.6198 7.40919 15.5623 7.50202 16.4188 7.85681C17.2754 8.21159 18.0074 8.8124 18.5225 9.58326Z" stroke="white" stroke-width="2"/>
</svg>
